<?xml version="1.0" encoding="iso-8859-1"?>
<!-- Uploaded to: SVG Repo, www.svgrepo.com, Generator: SVG Repo Mixer Tools -->
<svg height="800px" width="800px" version="1.1" id="Layer_1" xmlns="http://www.w3.org/2000/svg" xmlns:xlink="http://www.w3.org/1999/xlink" 
	 viewBox="0 0 512 512" xml:space="preserve">
<path style="fill:#FF5E5B;" d="M256,512c-120.23,0-218.043-97.814-218.043-218.043c0-71.643,35.24-138.755,94.265-179.525
	c11.826-8.172,28.166-0.917,30.017,13.359l8.523,65.735l41.891-26.014c10.434-6.477,24.142-1.638,28.262,9.85l15.083,42.054
	l15.076-42.051c4.15-11.573,17.914-16.286,28.276-9.853l41.891,26.014l8.523-65.735c1.85-14.257,18.17-21.539,30.017-13.359
	c59.026,40.77,94.265,107.881,94.265,179.525C474.043,414.186,376.229,512,256,512z"/>
<g>
	<path style="fill:#ED3E3C;" d="M379.778,114.431c-11.828-8.169-28.166-0.92-30.017,13.359l-8.523,65.735
		c-45.42-28.205-44.745-28.91-52.054-28.91c-8.122,0-15.37,5.102-18.113,12.748L256,219.404V512
		c120.23,0,218.043-97.814,218.043-218.043C474.043,222.313,438.805,155.201,379.778,114.431z"/>
	<path style="fill:#ED3E3C;" d="M182.285,436.024c-24.251-12.829-44.88-31.855-59.658-55.02c-5.715-8.959-3.085-20.855,5.874-26.57
		c8.961-5.716,20.855-3.085,26.571,5.874c11.2,17.56,26.834,31.979,45.21,41.7c9.392,4.969,12.979,16.613,8.01,26.005
		C203.321,437.408,191.677,440.992,182.285,436.024z"/>
</g>
<path style="fill:#23B898;" d="M237.889,282.917l-25.16-70.154l-47.057,29.221c-11.883,7.377-27.437-0.015-29.231-13.872
	l-11.712-90.322l-23.432-31.043c-9.549-12.651-0.507-30.835,15.357-30.835h86.907V52.439C203.561,23.524,227.085,0,256,0
	s52.439,23.524,52.439,52.439v23.474h86.907c15.847,0,24.915,18.173,15.357,30.834l-23.432,31.043l-11.712,90.322
	c-1.797,13.868-17.361,21.245-29.231,13.872l-47.063-29.225l-25.151,70.157C268.046,299.838,243.977,299.893,237.889,282.917z"/>
<path style="fill:#1DA49C;" d="M395.346,75.914h-86.907V52.439C308.439,23.524,284.915,0,256,0v295.663
	c8.062,0,15.351-5.044,18.113-12.748l25.151-70.157l47.063,29.225c11.88,7.377,27.437-0.014,29.231-13.872l11.712-90.322
	l23.432-31.043C420.252,94.098,411.21,75.914,395.346,75.914z"/>
</svg>